<svg viewBox="0 0 1024 1024"><path d="M75.094,306.009c0-27.5,19.413-61.375,43.14-75.277L468.861,25.286c23.727-13.902,62.553-13.902,86.28,0    l350.625,205.445c23.729,13.902,43.141,47.777,43.141,75.277v412c0,27.5-19.412,61.375-43.141,75.277L555.141,998.731    c-23.727,13.901-62.553,13.901-86.28,0L118.234,793.286c-23.727-13.902-43.14-47.777-43.14-75.277V306.009z" fill="#3B5998"/><path d="M649.174,335.915v-86.827c-3.188,0-6.377-0.006-9.564,0  c-7.678,0.017-15.355-0.019-23.033,0.001c-9.361,0.024-18.725-0.039-28.086,0.001c-8.25,0.036-16.502-0.083-24.75,0.002  c-12.451,0.129-24.271,0.741-36.213,4.586c-11.516,3.708-22.323,10.202-31.53,17.989c-5.331,4.509-10.266,9.338-14.736,14.707  c-1.81,2.23-3.494,4.548-5.07,6.946c-4.727,7.194-8.458,15.106-11.577,23.497c-0.702,1.888-1.39,3.782-2.046,5.685  c-4.809,13.93-4.967,29.135-4.967,43.773c0,1.833,0,3.723,0,5.656c0,29,0,67.662,0,67.662h-82.772v95.573h79.787h2.133v239.787  h94.72v-241.92l85.973,1.16l11.592-93.974l-97.137-0.2v-72.533c0,0-0.215-30.933,26.025-31.36L649.174,335.915z" fill="#FFFFFF"/></svg>
