<svg viewBox="0 0 1024 1024"><path fill="#CE6F2D" d="M75.094,306.009c0-27.5,19.413-61.375,43.14-75.277L468.861,25.286    c23.727-13.902,62.553-13.902,86.28,0l350.625,205.445c23.729,13.902,43.141,47.777,43.141,75.277v412    c0,27.5-19.412,61.375-43.141,75.277L555.141,998.731c-23.727,13.901-62.553,13.901-86.28,0L118.234,793.286    c-23.727-13.902-43.14-47.777-43.14-75.277V306.009z"/><circle cx="637.239" cy="386.196" fill="#FFFFFF" r="28.276"/><circle cx="512.001" cy="512.009" fill="none" r="103.605" stroke="#FFFFFF" stroke-miterlimit="10" stroke-width="45"/><path d="M295.933,573.574c0,91.127,73.873,165,165,165   h102.136c91.127,0,165-73.873,165-165v-123.13c0-91.127-73.873-165-165-165H460.933c-91.127,0-165,73.873-165,165V573.574z" fill="none" stroke="#FFFFFF" stroke-miterlimit="10" stroke-width="45"/></svg>
