<svg viewBox="0 0 512 512">
  <path transform="scale(.5)" d="M75.094,306.009c0-27.5,19.413-61.375,43.14-75.277L468.861,25.286c23.727-13.902,62.553-13.902,86.28,0    l350.625,205.445c23.729,13.902,43.141,47.777,43.141,75.277v412c0,27.5-19.412,61.375-43.141,75.277L555.141,998.731    c-23.727,13.901-62.553,13.901-86.28,0L118.234,793.286c-23.727-13.902-43.14-47.777-43.14-75.277V306.009z" fill="#64A9DC"/>
  <path fill="#ffffff" transform="translate(267.22034,55) scale(.8)" d="M 127.88103,94.198045 -218.4667,227.78507 c -23.63879,9.48433 -23.4986,22.66901 -4.30871,28.54816 l 86.38017,26.96101 33.05108,101.33207 c 4.018041,11.09077 2.03732,15.48953 13.683731,15.48953 8.98786,0 12.97504,-4.09778 17.98087,-8.98786 3.1833,-3.11513 22.08378,-21.49087 43.18752,-42.00936 l 89.85158,66.38643 c 16.5339,9.12161 28.47227,4.39617 32.58935,-15.35577 L 152.92948,122.20987 C 158.96812,98.000015 143.69981,87.018565 127.88103,94.198045 z M -122.83885,277.09998 71.862531,154.2616 c 9.71969,-5.89458 18.63166,-2.72542 11.31455,3.76981 l -166.71528,150.41932 -6.49136,69.23533 -32.809291,-100.58608 z"/>
</svg>
