<svg viewBox="0 0 1024 1024"><path d="M75.094,306.009c0-27.5,19.413-61.375,43.14-75.277L468.861,25.286c23.727-13.902,62.553-13.902,86.28,0    l350.625,205.445c23.729,13.902,43.141,47.777,43.141,75.277v412c0,27.5-19.412,61.375-43.141,75.277L555.141,998.731    c-23.727,13.901-62.553,13.901-86.28,0L118.234,793.286c-23.727-13.902-43.14-47.777-43.14-75.277V306.009z" fill="#00ACED"/><path d="M709.11,375.06c0,0,44.955-37.835,43.529-54.719c0,0-51.869,22.782-63.262,23.8  c0,0-3.605-3.63-9.512-8.401c-1.967-1.591-4.191-3.309-6.623-5.062c-4.504-3.288-9.244-6.113-14.166-8.507  c-2.461-1.196-4.969-2.286-7.508-3.277c-16.537-7.246-34.654-9.021-52.438-7.075c-2.541,0.277-5.074,0.632-7.596,1.057  c-29.496,4.617-54.721,22.518-70.594,46.924c-1.424,2.226-2.744,4.512-3.949,6.854c-2.406,4.687-4.342,9.604-5.705,14.736  c-0.535,1.895-1.12,4.101-1.672,6.455c-0.554,2.355-1.074,4.86-1.481,7.353c-1.627,9.968,0,42.311,0,42.311  s-131.203,4.068-215.417-104.962c0,0-41.496,78.519,30.105,133.44c0,0-14.563,6.51-42.065-9.765c0,0-13.67,59.804,75.019,100.894  h-43.125c0,0,15.053,66.313,95.198,72.417c0,0-37.835,50.853-147.68,43.123c0,0,99.105,68.911,226.787,36.929  c2.279-0.571,4.569-1.175,6.867-1.811c20.208-6.233,40.549-13.557,59.026-23.375c1.611-0.838,3.225-1.692,4.84-2.566  c4.844-2.623,9.707-5.413,14.59-8.378c0,0,134.248-72.739,145.23-260.684c0,0,28.211-16.556,46.316-48.288  C763.829,364.482,712.973,376.28,709.11,375.06z" fill="#FFFFFF"/></svg>
