<svg viewBox="0 0 53 17"><path d="M23,17.33H18.66L21.37,0.71h4.31ZM15,0.71L10.88,12.13,10.4,9.69,8.93,2.18a1.86,1.86,0,0,0-2-1.51H0.09L0,1A16.46,16.46,0,0,1,4.53,2.89L8.31,17.33h4.49L19.68,0.71H15ZM49,17.33h4L49.49,0.71H46A2,2,0,0,0,44,2l-6.4,15.37h4.49L43,14.84h5.51Zm-4.75-5.91L46.51,5.2l1.29,6.22H44.25ZM37.94,4.71l0.62-3.55A12.78,12.78,0,0,0,34.65.45c-2.13,0-7.24.93-7.24,5.51,0,4.31,6,4.35,6,6.62S28,14.44,26.26,13l-0.62,3.73a12.06,12.06,0,0,0,4.89.93c2.93,0,7.42-1.51,7.42-5.69s-6-4.71-6-6.62S36.07,3.69,37.94,4.71Z" transform="translate(0 -0.63)" fill="#48588c"/><path d="M10.4,9.64L8.93,2.18a1.86,1.86,0,0,0-2-1.51H0.09L0,1A16.2,16.2,0,0,1,6.4,4.22,12.7,12.7,0,0,1,10.4,9.64Z" transform="translate(0 -0.64)" fill="#e9a944"/></svg>
