<svg viewBox="0 0 1024 1024"><path d="M75.094,306.009c0-27.5,19.413-61.375,43.14-75.277L468.861,25.286c23.727-13.902,62.553-13.902,86.28,0    l350.625,205.445c23.729,13.902,43.141,47.777,43.141,75.277v412c0,27.5-19.412,61.375-43.141,75.277L555.141,998.731    c-23.727,13.901-62.553,13.901-86.28,0L118.234,793.286c-23.727-13.902-43.14-47.777-43.14-75.277V306.009z" fill="#C12025"/><path d="M609.204,330.959c-49.51-1.458-99.046-1.802-148.57-1.032  c-140.201,2.669-199.034,0.516-206.096,108.368c-1.524,45.628-1.635,91.149-0.331,136.762  c6.996,117.597,44.721,115.437,206.427,119.104c45.16,0.703,90.33,0.479,135.484-0.672c113.748-3.132,166.652-0.367,173.678-118.493  c1.301-45.592,1.191-91.092-0.334-136.699C762.428,330.008,701.424,333.587,609.204,330.959z M459.443,579.29  c-0.273-48.897-0.249-97.822,0.074-146.714c45.474,24.128,91.454,48.973,137.329,73.378  C551.01,530.279,505.005,555.111,459.443,579.29z" fill="#FFFFFF"/></svg>
