<?xml version="1.0" encoding="UTF-8"?>
<svg width="208px" height="266px" viewBox="0 0 208 266" version="1.1" xmlns="http://www.w3.org/2000/svg" xmlns:xlink="http://www.w3.org/1999/xlink">
    <!-- Generator: Sketch 40.3 (33839) - http://www.bohemiancoding.com/sketch -->
    <title>codeGo</title>
    <desc>Created with Sketch.</desc>
    <defs></defs>
    <g id="third-кривые" stroke="none" stroke-width="1" fill="none" fill-rule="evenodd">
        <g id="surface1" fill="#8BC34A">
            <path d="M190.666667,266 L17.3333333,266 C7.78646267,266 0,260.119966 0,252.910526 L0,30.3894737 C0,23.1800403 7.78646267,17.3 17.3333333,17.3 L190.666667,17.3 C200.213546,17.3 208,23.1800403 208,30.3894737 L208,252.910526 C208,260.119966 200.213546,266 190.666667,266 L190.666667,266 Z" id="Shape"></path>
            <path d="M138.666667,77.85 L69.3333333,77.85 C64.119796,77.85 60.6666667,74.40352 60.6666667,69.2 L60.6666667,8.65 C60.6666667,3.4464887 64.119796,0 69.3333333,0 L138.666667,0 C143.880213,0 147.333333,3.4464887 147.333333,8.65 L147.333333,69.2 C147.333333,74.40352 143.880213,77.85 138.666667,77.85 L138.666667,77.85 Z" id="Shape"></path>
        </g>
        <path d="M41.986,218.598 C41.7406654,217.647329 41.4033355,216.773337 40.974,215.976 C40.5446645,215.178663 39.99267,214.48867 39.318,213.906 C38.64333,213.32333 37.8536712,212.871002 36.949,212.549 C36.0443288,212.226998 34.994006,212.066 33.798,212.066 C32.0499913,212.066 30.539673,212.418663 29.267,213.124 C27.994327,213.829337 26.9593373,214.772327 26.162,215.953 C25.3646627,217.133673 24.7743353,218.475326 24.391,219.978 C24.0076647,221.480674 23.816,223.013992 23.816,224.578 C23.816,226.142008 24.0076647,227.675326 24.391,229.178 C24.7743353,230.680674 25.3646627,232.022327 26.162,233.203 C26.9593373,234.383673 27.994327,235.326663 29.267,236.032 C30.539673,236.737337 32.0499913,237.09 33.798,237.09 C35.0860064,237.09 36.2206618,236.867669 37.202,236.423 C38.1833382,235.978331 39.0266631,235.365004 39.732,234.583 C40.4373369,233.800996 40.9893313,232.888672 41.388,231.846 C41.7866687,230.803328 42.0473327,229.684006 42.17,228.488 L47.782,228.488 C47.6593327,230.450676 47.2376703,232.244659 46.517,233.87 C45.7963297,235.495341 44.8226728,236.898327 43.596,238.079 C42.3693272,239.259673 40.9280083,240.171997 39.272,240.816 C37.6159917,241.460003 35.7913433,241.782 33.798,241.782 C31.3446544,241.782 29.1443431,241.329671 27.197,240.425 C25.2496569,239.520329 23.6013401,238.286008 22.252,236.722 C20.9026599,235.157992 19.8676703,233.333344 19.147,231.248 C18.4263297,229.162656 18.066,226.939345 18.066,224.578 C18.066,222.247322 18.4263297,220.039344 19.147,217.954 C19.8676703,215.868656 20.9026599,214.044008 22.252,212.48 C23.6013401,210.915992 25.2496569,209.674005 27.197,208.754 C29.1443431,207.833995 31.3446544,207.374 33.798,207.374 C35.6380092,207.374 37.3706585,207.626997 38.996,208.133 C40.6213415,208.639003 42.0549938,209.374995 43.297,210.341 C44.5390062,211.307005 45.5433295,212.479993 46.31,213.86 C47.0766705,215.240007 47.5519991,216.819324 47.736,218.598 L41.986,218.598 Z M63.192,241.644 C61.2906572,241.644 59.5963408,241.32967 58.109,240.701 C56.6216592,240.07233 55.3643385,239.206006 54.337,238.102 C53.3096615,236.997994 52.5276693,235.679341 51.991,234.146 C51.4543307,232.612659 51.186,230.926009 51.186,229.086 C51.186,227.276658 51.4543307,225.605341 51.991,224.072 C52.5276693,222.538659 53.3096615,221.220006 54.337,220.116 C55.3643385,219.011994 56.6216592,218.14567 58.109,217.517 C59.5963408,216.88833 61.2906572,216.574 63.192,216.574 C65.0933428,216.574 66.7876592,216.88833 68.275,217.517 C69.7623408,218.14567 71.0196615,219.011994 72.047,220.116 C73.0743385,221.220006 73.8563306,222.538659 74.393,224.072 C74.9296693,225.605341 75.198,227.276658 75.198,229.086 C75.198,230.926009 74.9296693,232.612659 74.393,234.146 C73.8563306,235.679341 73.0743385,236.997994 72.047,238.102 C71.0196615,239.206006 69.7623408,240.07233 68.275,240.701 C66.7876592,241.32967 65.0933428,241.644 63.192,241.644 L63.192,241.644 Z M63.192,237.504 C64.3573392,237.504 65.369329,237.258669 66.228,236.768 C67.086671,236.277331 67.7919972,235.633337 68.344,234.836 C68.8960028,234.038663 69.302332,233.141672 69.563,232.145 C69.823668,231.148328 69.954,230.128672 69.954,229.086 C69.954,228.073995 69.823668,227.062005 69.563,226.05 C69.302332,225.037995 68.8960028,224.141004 68.344,223.359 C67.7919972,222.576996 67.086671,221.940669 66.228,221.45 C65.369329,220.959331 64.3573392,220.714 63.192,220.714 C62.0266608,220.714 61.014671,220.959331 60.156,221.45 C59.297329,221.940669 58.5920028,222.576996 58.04,223.359 C57.4879972,224.141004 57.081668,225.037995 56.821,226.05 C56.560332,227.062005 56.43,228.073995 56.43,229.086 C56.43,230.128672 56.560332,231.148328 56.821,232.145 C57.081668,233.141672 57.4879972,234.038663 58.04,234.836 C58.5920028,235.633337 59.297329,236.277331 60.156,236.768 C61.014671,237.258669 62.0266608,237.504 63.192,237.504 L63.192,237.504 Z M101.97,241 L97.002,241 L97.002,237.78 L96.91,237.78 C96.2046631,239.160007 95.1773401,240.148997 93.828,240.747 C92.4786599,241.345003 91.0526742,241.644 89.55,241.644 C87.679324,241.644 86.0463403,241.314337 84.651,240.655 C83.2556597,239.995663 82.0980046,239.098672 81.178,237.964 C80.2579954,236.829328 79.5680023,235.487674 79.108,233.939 C78.6479977,232.390326 78.418,230.726676 78.418,228.948 C78.418,226.801323 78.7093304,224.946008 79.292,223.382 C79.8746696,221.817992 80.6489952,220.530005 81.615,219.518 C82.5810048,218.505995 83.6849938,217.762336 84.927,217.287 C86.1690062,216.811664 87.4339936,216.574 88.722,216.574 C89.4580037,216.574 90.2093295,216.642999 90.976,216.781 C91.7426705,216.919001 92.4786631,217.141332 93.184,217.448 C93.8893369,217.754668 94.540997,218.145664 95.139,218.621 C95.737003,219.096336 96.2353313,219.655997 96.634,220.3 L96.726,220.3 L96.726,208.156 L101.97,208.156 L101.97,241 Z M83.662,229.362 C83.662,230.374005 83.792332,231.370662 84.053,232.352 C84.313668,233.333338 84.7123306,234.20733 85.249,234.974 C85.7856694,235.74067 86.4679959,236.353998 87.296,236.814 C88.1240041,237.274002 89.1053277,237.504 90.24,237.504 C91.4053392,237.504 92.4096625,237.258669 93.253,236.768 C94.0963376,236.277331 94.7863307,235.633337 95.323,234.836 C95.8596694,234.038663 96.258332,233.141672 96.519,232.145 C96.779668,231.148328 96.91,230.128672 96.91,229.086 C96.91,226.448653 96.3196726,224.394007 95.139,222.922 C93.9583274,221.449993 92.3560101,220.714 90.332,220.714 C89.1053272,220.714 88.0703376,220.966997 87.227,221.473 C86.3836625,221.979003 85.6936694,222.638329 85.157,223.451 C84.6203307,224.263671 84.2370012,225.183662 84.007,226.211 C83.7769988,227.238338 83.662,228.288661 83.662,229.362 L83.662,229.362 Z M124.004,227.016 C123.942666,226.187996 123.766335,225.39067 123.475,224.624 C123.183665,223.857329 122.785003,223.190336 122.279,222.623 C121.772997,222.055664 121.15967,221.595668 120.439,221.243 C119.71833,220.890332 118.913338,220.714 118.024,220.714 C117.103995,220.714 116.268337,220.874998 115.517,221.197 C114.765663,221.519002 114.121669,221.963664 113.585,222.531 C113.048331,223.098336 112.619002,223.76533 112.297,224.532 C111.974998,225.298671 111.798667,226.126662 111.768,227.016 L124.004,227.016 Z M111.768,230.466 C111.768,231.386005 111.898332,232.275329 112.159,233.134 C112.419668,233.992671 112.810664,234.743997 113.332,235.388 C113.853336,236.032003 114.512663,236.545665 115.31,236.929 C116.107337,237.312335 117.057994,237.504 118.162,237.504 C119.695341,237.504 120.929662,237.174337 121.865,236.515 C122.800338,235.855663 123.497998,234.866673 123.958,233.548 L128.926,233.548 C128.649999,234.836006 128.17467,235.985995 127.5,236.998 C126.82533,238.010005 126.012671,238.860997 125.062,239.551 C124.111329,240.241003 123.045673,240.762332 121.865,241.115 C120.684327,241.467668 119.450006,241.644 118.162,241.644 C116.291324,241.644 114.635341,241.337336 113.194,240.724 C111.752659,240.110664 110.533672,239.252006 109.537,238.148 C108.540328,237.043994 107.789003,235.725341 107.283,234.192 C106.776997,232.658659 106.524,230.972009 106.524,229.132 C106.524,227.445325 106.792331,225.843008 107.329,224.325 C107.865669,222.806992 108.632328,221.473006 109.629,220.323 C110.625672,219.172994 111.829326,218.26067 113.24,217.586 C114.650674,216.91133 116.245324,216.574 118.024,216.574 C119.894676,216.574 121.573659,216.964996 123.061,217.747 C124.548341,218.529004 125.782662,219.563994 126.764,220.852 C127.745338,222.140006 128.458331,223.619658 128.903,225.291 C129.347669,226.962342 129.462668,228.687324 129.248,230.466 L111.768,230.466 Z M162.644,241 L158.964,241 L158.09,237.136 C156.556659,238.884009 155.023341,240.09533 153.49,240.77 C151.956659,241.44467 150.193343,241.782 148.2,241.782 C145.746654,241.782 143.546343,241.329671 141.599,240.425 C139.651657,239.520329 138.00334,238.286008 136.654,236.722 C135.30466,235.157992 134.26967,233.333344 133.549,231.248 C132.82833,229.162656 132.468,226.939345 132.468,224.578 C132.468,222.247322 132.82833,220.039344 133.549,217.954 C134.26967,215.868656 135.30466,214.044008 136.654,212.48 C138.00334,210.915992 139.651657,209.674005 141.599,208.754 C143.546343,207.833995 145.746654,207.374 148.2,207.374 C149.978676,207.374 151.672992,207.611664 153.283,208.087 C154.893008,208.562336 156.32666,209.267662 157.584,210.203 C158.84134,211.138338 159.883996,212.311326 160.712,213.722 C161.540004,215.132674 162.061332,216.757991 162.276,218.598 L156.664,218.598 C156.510666,217.524661 156.181003,216.581671 155.675,215.769 C155.168997,214.956329 154.53267,214.274003 153.766,213.722 C152.999329,213.169997 152.140671,212.756001 151.19,212.48 C150.239329,212.203999 149.242672,212.066 148.2,212.066 C146.451991,212.066 144.941673,212.418663 143.669,213.124 C142.396327,213.829337 141.361337,214.772327 140.564,215.953 C139.766663,217.133673 139.176335,218.475326 138.793,219.978 C138.409665,221.480674 138.218,223.013992 138.218,224.578 C138.218,226.142008 138.409665,227.675326 138.793,229.178 C139.176335,230.680674 139.766663,232.022327 140.564,233.203 C141.361337,234.383673 142.396327,235.326663 143.669,236.032 C144.941673,236.737337 146.451991,237.09 148.2,237.09 C149.672007,237.120667 150.975328,236.929002 152.11,236.515 C153.244672,236.100998 154.202996,235.503004 154.985,234.721 C155.767004,233.938996 156.357331,232.980672 156.756,231.846 C157.154669,230.711328 157.369333,229.454007 157.4,228.074 L148.66,228.074 L148.66,223.704 L162.644,223.704 L162.644,241 Z M179.066,241.644 C177.164657,241.644 175.470341,241.32967 173.983,240.701 C172.495659,240.07233 171.238338,239.206006 170.211,238.102 C169.183662,236.997994 168.401669,235.679341 167.865,234.146 C167.328331,232.612659 167.06,230.926009 167.06,229.086 C167.06,227.276658 167.328331,225.605341 167.865,224.072 C168.401669,222.538659 169.183662,221.220006 170.211,220.116 C171.238338,219.011994 172.495659,218.14567 173.983,217.517 C175.470341,216.88833 177.164657,216.574 179.066,216.574 C180.967343,216.574 182.661659,216.88833 184.149,217.517 C185.636341,218.14567 186.893662,219.011994 187.921,220.116 C188.948338,221.220006 189.730331,222.538659 190.267,224.072 C190.803669,225.605341 191.072,227.276658 191.072,229.086 C191.072,230.926009 190.803669,232.612659 190.267,234.146 C189.730331,235.679341 188.948338,236.997994 187.921,238.102 C186.893662,239.206006 185.636341,240.07233 184.149,240.701 C182.661659,241.32967 180.967343,241.644 179.066,241.644 L179.066,241.644 Z M179.066,237.504 C180.231339,237.504 181.243329,237.258669 182.102,236.768 C182.960671,236.277331 183.665997,235.633337 184.218,234.836 C184.770003,234.038663 185.176332,233.141672 185.437,232.145 C185.697668,231.148328 185.828,230.128672 185.828,229.086 C185.828,228.073995 185.697668,227.062005 185.437,226.05 C185.176332,225.037995 184.770003,224.141004 184.218,223.359 C183.665997,222.576996 182.960671,221.940669 182.102,221.45 C181.243329,220.959331 180.231339,220.714 179.066,220.714 C177.900661,220.714 176.888671,220.959331 176.03,221.45 C175.171329,221.940669 174.466003,222.576996 173.914,223.359 C173.361997,224.141004 172.955668,225.037995 172.695,226.05 C172.434332,227.062005 172.304,228.073995 172.304,229.086 C172.304,230.128672 172.434332,231.148328 172.695,232.145 C172.955668,233.141672 173.361997,234.038663 173.914,234.836 C174.466003,235.633337 175.171329,236.277331 176.03,236.768 C176.888671,237.258669 177.900661,237.504 179.066,237.504 L179.066,237.504 Z" id="codeGo" fill="#FFFFFF"></path>
        <path d="M57.208,54.338 L50.296,54.338 C47.3199851,54.338 45.328005,55.441989 44.32,57.65 C43.311995,59.858011 42.808,63.6979726 42.808,69.17 L42.808,91.778 C42.808,96.578024 42.3760043,100.441985 41.512,103.37 C40.6479957,106.298015 39.6400058,108.577992 38.488,110.21 C37.3359942,111.842008 36.2080055,112.993997 35.104,113.666 C33.9999945,114.338003 33.2080024,114.817999 32.728,115.106 C33.2080024,115.586002 33.9999945,116.209996 35.104,116.978 C36.2080055,117.746004 37.3359942,118.969992 38.488,120.65 C39.6400058,122.330008 40.6479957,124.633985 41.512,127.562 C42.3760043,130.490015 42.808,134.353976 42.808,139.154 L42.808,161.762 C42.808,167.234027 43.311995,171.073989 44.32,173.282 C45.328005,175.490011 47.3199851,176.594 50.296,176.594 L57.208,176.594 L57.208,181.346 L50.008,181.346 C45.9759798,181.346 42.856011,180.146012 40.648,177.746 C38.439989,175.345988 37.336,170.882033 37.336,164.354 L37.336,141.602 C37.336,138.721986 37.1920014,135.890014 36.904,133.106 C36.6159986,130.321986 36.0880038,127.850011 35.32,125.69 C34.5519962,123.529989 33.4960067,121.778007 32.152,120.434 C30.8079933,119.089993 29.0800106,118.37 26.968,118.274 L26.968,112.802 C29.0800106,112.706 30.8079933,111.986007 32.152,110.642 C33.4960067,109.297993 34.5519962,107.546011 35.32,105.386 C36.0880038,103.225989 36.6159986,100.754014 36.904,97.97 C37.1920014,95.1859861 37.336,92.3540144 37.336,89.474 L37.336,66.578 C37.336,60.0499674 38.439989,55.586012 40.648,53.186 C42.856011,50.785988 45.9759798,49.586 50.008,49.586 L57.208,49.586 L57.208,54.338 Z M148.792,176.594 L155.704,176.594 C158.680015,176.594 160.671995,175.490011 161.68,173.282 C162.688005,171.073989 163.192,167.234027 163.192,161.762 L163.192,139.154 C163.192,134.353976 163.623996,130.490015 164.488,127.562 C165.352004,124.633985 166.359994,122.330008 167.512,120.65 C168.664006,118.969992 169.791994,117.746004 170.896,116.978 C172.000006,116.209996 172.791998,115.586002 173.272,115.106 C172.791998,114.817999 172.000006,114.338003 170.896,113.666 C169.791994,112.993997 168.664006,111.842008 167.512,110.21 C166.359994,108.577992 165.352004,106.298015 164.488,103.37 C163.623996,100.441985 163.192,96.578024 163.192,91.778 L163.192,69.17 C163.192,63.6979726 162.688005,59.858011 161.68,57.65 C160.671995,55.441989 158.680015,54.338 155.704,54.338 L148.792,54.338 L148.792,49.586 L155.992,49.586 C160.02402,49.586 163.143989,50.785988 165.352,53.186 C167.560011,55.586012 168.664,60.0499674 168.664,66.578 L168.664,89.474 C168.664,92.3540144 168.807999,95.1859861 169.096,97.97 C169.384001,100.754014 169.911996,103.225989 170.68,105.386 C171.448004,107.546011 172.503993,109.297993 173.848,110.642 C175.192007,111.986007 176.919989,112.706 179.032,112.802 L179.032,118.274 C176.919989,118.37 175.192007,119.089993 173.848,120.434 C172.503993,121.778007 171.448004,123.529989 170.68,125.69 C169.911996,127.850011 169.384001,130.321986 169.096,133.106 C168.807999,135.890014 168.664,138.721986 168.664,141.602 L168.664,164.354 C168.664,170.882033 167.560011,175.345988 165.352,177.746 C163.143989,180.146012 160.02402,181.346 155.992,181.346 L148.792,181.346 L148.792,176.594 Z" id="{-}" fill="#FFFFFF"></path>
        <polygon id="Shape" fill="#FFFFFF" points="142.726397 110.877083 106.643465 110.877083 121.071514 38.85 64 123.972917 100.082932 123.972917 85.6548829 196"></polygon>
    </g>
</svg>