<svg width="200" height="155" viewBox="0 0 200 155" xmlns="http://www.w3.org/2000/svg"><path d="M36.327 154.562v-10.28c0-3.942-2.4-6.513-6.51-6.513-2.057 0-4.285.685-5.827 2.912-1.2-1.885-2.913-2.913-5.484-2.913-1.713 0-3.427.513-4.798 2.398v-2.056H10.11v16.45h3.598v-9.082c0-2.913 1.543-4.284 3.942-4.284 2.4 0 3.598 1.543 3.598 4.284v9.082h3.598v-9.082c0-2.913 1.714-4.284 3.942-4.284 2.4 0 3.598 1.543 3.598 4.284v9.082h3.94zm53.292-16.45H83.79v-4.97h-3.598v4.97h-3.256v3.256h3.256v7.54c0 3.77 1.542 5.997 5.655 5.997 1.54 0 3.254-.514 4.454-1.2l-1.028-3.084c-1.028.686-2.228.858-3.085.858-1.712 0-2.398-1.03-2.398-2.742v-7.368h5.827v-3.256zm30.5-.343c-2.057 0-3.427 1.027-4.284 2.398v-2.056h-3.6v16.45h3.6v-9.253c0-2.743 1.2-4.285 3.427-4.285.685 0 1.542.17 2.227.343l1.03-3.427c-.687-.17-1.715-.17-2.4-.17zm-46.095 1.713c-1.713-1.2-4.112-1.714-6.683-1.714-4.112 0-6.854 2.056-6.854 5.31 0 2.743 2.057 4.285 5.655 4.8l1.713.17c1.885.343 2.914.857 2.914 1.714 0 1.2-1.37 2.056-3.77 2.056s-4.284-.856-5.484-1.713l-1.713 2.74c1.885 1.372 4.455 2.058 7.025 2.058 4.798 0 7.54-2.228 7.54-5.312 0-2.913-2.228-4.455-5.655-4.97l-1.713-.17c-1.542-.172-2.742-.515-2.742-1.543 0-1.2 1.2-1.885 3.084-1.885 2.057 0 4.113.857 5.14 1.37l1.543-2.912zm95.616-1.714c-2.055 0-3.426 1.027-4.283 2.398v-2.056h-3.598v16.45h3.597v-9.253c0-2.743 1.2-4.285 3.427-4.285.686 0 1.543.17 2.228.343l1.028-3.427c-.685-.17-1.713-.17-2.4-.17zm-45.922 8.567c0 4.97 3.427 8.568 8.74 8.568 2.398 0 4.112-.514 5.825-1.885l-1.713-2.913c-1.37 1.028-2.742 1.542-4.284 1.542-2.913 0-4.97-2.057-4.97-5.313 0-3.084 2.057-5.14 4.97-5.312 1.542 0 2.913.514 4.284 1.542l1.713-2.913c-1.713-1.37-3.427-1.885-5.826-1.885-5.312 0-8.74 3.598-8.74 8.567zm33.243 0v-8.225h-3.598v2.056c-1.2-1.542-2.913-2.4-5.14-2.4-4.627 0-8.225 3.6-8.225 8.57 0 4.968 3.598 8.567 8.225 8.567 2.4 0 4.112-.857 5.14-2.4v2.057h3.6v-8.225zm-13.193 0c0-2.913 1.884-5.312 4.97-5.312 2.912 0 4.968 2.228 4.968 5.312 0 2.913-2.056 5.312-4.97 5.312-3.084-.172-4.968-2.4-4.968-5.313zm-43.01-8.568c-4.798 0-8.225 3.426-8.225 8.567 0 5.14 3.427 8.568 8.396 8.568 2.4 0 4.798-.686 6.683-2.228l-1.713-2.57c-1.37 1.028-3.084 1.713-4.798 1.713-2.228 0-4.456-1.028-4.97-3.94h12.166v-1.372c.172-5.312-2.913-8.74-7.54-8.74zm0 3.084c2.227 0 3.77 1.37 4.112 3.94H96.3c.344-2.227 1.886-3.94 4.457-3.94zm89.275 5.483V131.6h-3.598v8.568c-1.2-1.542-2.913-2.4-5.14-2.4-4.627 0-8.226 3.6-8.226 8.57 0 4.968 3.6 8.567 8.225 8.567 2.4 0 4.113-.857 5.14-2.4v2.057h3.6v-8.225zm-13.194 0c0-2.913 1.885-5.312 4.97-5.312 2.912 0 4.97 2.228 4.97 5.312 0 2.913-2.058 5.312-4.97 5.312-3.085-.172-4.97-2.4-4.97-5.313zm-120.29 0v-8.225h-3.6v2.056c-1.2-1.542-2.912-2.4-5.14-2.4-4.627 0-8.225 3.6-8.225 8.57 0 4.968 3.598 8.567 8.225 8.567 2.4 0 4.113-.857 5.14-2.4v2.057h3.6v-8.225zm-13.367 0c0-2.913 1.886-5.312 4.97-5.312 2.914 0 4.97 2.228 4.97 5.312 0 2.913-2.056 5.312-4.97 5.312-3.084-.172-4.97-2.4-4.97-5.313z"/><path class="st1" fill="#ff5f00" d="M72.826 13.194h53.976v96.987H72.826z"/><path d="M76.253 61.688c0-19.706 9.253-37.184 23.475-48.494C89.276 4.97 76.082 0 61.688 0 27.588 0 0 27.588 0 61.688s27.588 61.687 61.688 61.687c14.394 0 27.588-4.97 38.04-13.194C85.506 99.044 76.253 81.395 76.253 61.69z" class="st2" fill="#eb001b"/><path d="M199.628 61.688c0 34.1-27.588 61.687-61.687 61.687-14.393 0-27.588-4.97-38.04-13.194 14.394-11.308 23.475-28.786 23.475-48.492 0-19.706-9.253-37.184-23.475-48.494C110.352 4.97 123.547 0 137.94 0c34.1 0 61.688 27.76 61.688 61.688z" class="st3" fill="#f79e1b"/></svg>
