<svg xmlns="http://www.w3.org/2000/svg"><symbol id="fb" viewBox="0 0 1024 1024"><path d="M75.094 306.009c0-27.5 19.413-61.375 43.14-75.277L468.861 25.286c23.727-13.902 62.553-13.902 86.28 0l350.625 205.445c23.729 13.902 43.141 47.777 43.141 75.277v412c0 27.5-19.412 61.375-43.141 75.277L555.141 998.731c-23.727 13.901-62.553 13.901-86.28 0L118.234 793.286c-23.727-13.902-43.14-47.777-43.14-75.277v-412z" fill="#3B5998"/><path d="M649.174 335.915v-86.827c-3.188 0-6.377-.006-9.564 0-7.678.017-15.355-.019-23.033.001-9.361.024-18.725-.039-28.086.001-8.25.036-16.502-.083-24.75.002-12.451.129-24.271.741-36.213 4.586-11.516 3.708-22.323 10.202-31.53 17.989-5.331 4.509-10.266 9.338-14.736 14.707a85.63 85.63 0 0 0-5.07 6.946c-4.727 7.194-8.458 15.106-11.577 23.497a251.622 251.622 0 0 0-2.046 5.685c-4.809 13.93-4.967 29.135-4.967 43.773V439.593H374.83v95.573h81.92v239.787h94.72v-241.92l85.973 1.16 11.592-93.974-97.137-.2v-72.533s-.215-30.933 26.025-31.36l71.251-.211z" fill="#FFF"/></symbol><symbol id="inst" viewBox="0 0 1024 1024"><path fill="#CE6F2D" d="M75.094 306.009c0-27.5 19.413-61.375 43.14-75.277L468.861 25.286c23.727-13.902 62.553-13.902 86.28 0l350.625 205.445c23.729 13.902 43.141 47.777 43.141 75.277v412c0 27.5-19.412 61.375-43.141 75.277L555.141 998.731c-23.727 13.901-62.553 13.901-86.28 0L118.234 793.286c-23.727-13.902-43.14-47.777-43.14-75.277v-412z"/><circle cx="637.239" cy="386.196" fill="#FFF" r="28.276"/><circle cx="512.001" cy="512.009" fill="none" r="103.605" stroke="#FFF" stroke-miterlimit="10" stroke-width="45"/><path d="M295.933 573.574c0 91.127 73.873 165 165 165h102.136c91.127 0 165-73.873 165-165v-123.13c0-91.127-73.873-165-165-165H460.933c-91.127 0-165 73.873-165 165v123.13z" fill="none" stroke="#FFF" stroke-miterlimit="10" stroke-width="45"/></symbol><symbol id="mastercard" viewBox="0 0 200 155"><path d="M36.327 154.562v-10.28c0-3.942-2.4-6.513-6.51-6.513-2.057 0-4.285.685-5.827 2.912-1.2-1.885-2.913-2.913-5.484-2.913-1.713 0-3.427.513-4.798 2.398v-2.056H10.11v16.45h3.598v-9.082c0-2.913 1.543-4.284 3.942-4.284 2.4 0 3.598 1.543 3.598 4.284v9.082h3.598v-9.082c0-2.913 1.714-4.284 3.942-4.284 2.4 0 3.598 1.543 3.598 4.284v9.082h3.94zm53.292-16.45H83.79v-4.97h-3.598v4.97h-3.256v3.256h3.256v7.54c0 3.77 1.542 5.997 5.655 5.997 1.54 0 3.254-.514 4.454-1.2l-1.028-3.084c-1.028.686-2.228.858-3.085.858-1.712 0-2.398-1.03-2.398-2.742v-7.368h5.827v-3.256zm30.5-.343c-2.057 0-3.427 1.027-4.284 2.398v-2.056h-3.6v16.45h3.6v-9.253c0-2.743 1.2-4.285 3.427-4.285.685 0 1.542.17 2.227.343l1.03-3.427c-.687-.17-1.715-.17-2.4-.17zm-46.095 1.713c-1.713-1.2-4.112-1.714-6.683-1.714-4.112 0-6.854 2.056-6.854 5.31 0 2.743 2.057 4.285 5.655 4.8l1.713.17c1.885.343 2.914.857 2.914 1.714 0 1.2-1.37 2.056-3.77 2.056s-4.284-.856-5.484-1.713l-1.713 2.74c1.885 1.372 4.455 2.058 7.025 2.058 4.798 0 7.54-2.228 7.54-5.312 0-2.913-2.228-4.455-5.655-4.97l-1.713-.17c-1.542-.172-2.742-.515-2.742-1.543 0-1.2 1.2-1.885 3.084-1.885 2.057 0 4.113.857 5.14 1.37l1.543-2.912zm95.616-1.714c-2.055 0-3.426 1.027-4.283 2.398v-2.056h-3.598v16.45h3.597v-9.253c0-2.743 1.2-4.285 3.427-4.285.686 0 1.543.17 2.228.343l1.028-3.427c-.685-.17-1.713-.17-2.4-.17zm-45.922 8.567c0 4.97 3.427 8.568 8.74 8.568 2.398 0 4.112-.514 5.825-1.885l-1.713-2.913c-1.37 1.028-2.742 1.542-4.284 1.542-2.913 0-4.97-2.057-4.97-5.313 0-3.084 2.057-5.14 4.97-5.312 1.542 0 2.913.514 4.284 1.542l1.713-2.913c-1.713-1.37-3.427-1.885-5.826-1.885-5.312 0-8.74 3.598-8.74 8.567zm33.243 0v-8.225h-3.598v2.056c-1.2-1.542-2.913-2.4-5.14-2.4-4.627 0-8.225 3.6-8.225 8.57 0 4.968 3.598 8.567 8.225 8.567 2.4 0 4.112-.857 5.14-2.4v2.057h3.6v-8.225zm-13.193 0c0-2.913 1.884-5.312 4.97-5.312 2.912 0 4.968 2.228 4.968 5.312 0 2.913-2.056 5.312-4.97 5.312-3.084-.172-4.968-2.4-4.968-5.313zm-43.01-8.568c-4.798 0-8.225 3.426-8.225 8.567 0 5.14 3.427 8.568 8.396 8.568 2.4 0 4.798-.686 6.683-2.228l-1.713-2.57c-1.37 1.028-3.084 1.713-4.798 1.713-2.228 0-4.456-1.028-4.97-3.94h12.166v-1.372c.172-5.312-2.913-8.74-7.54-8.74zm0 3.084c2.227 0 3.77 1.37 4.112 3.94H96.3c.344-2.227 1.886-3.94 4.457-3.94zm89.275 5.483V131.6h-3.598v8.568c-1.2-1.542-2.913-2.4-5.14-2.4-4.627 0-8.226 3.6-8.226 8.57 0 4.968 3.6 8.567 8.225 8.567 2.4 0 4.113-.857 5.14-2.4v2.057h3.6v-8.225zm-13.194 0c0-2.913 1.885-5.312 4.97-5.312 2.912 0 4.97 2.228 4.97 5.312 0 2.913-2.058 5.312-4.97 5.312-3.085-.172-4.97-2.4-4.97-5.313zm-120.29 0v-8.225h-3.6v2.056c-1.2-1.542-2.912-2.4-5.14-2.4-4.627 0-8.225 3.6-8.225 8.57 0 4.968 3.598 8.567 8.225 8.567 2.4 0 4.113-.857 5.14-2.4v2.057h3.6v-8.225zm-13.367 0c0-2.913 1.886-5.312 4.97-5.312 2.914 0 4.97 2.228 4.97 5.312 0 2.913-2.056 5.312-4.97 5.312-3.084-.172-4.97-2.4-4.97-5.313z"/><path class="st1" fill="#ff5f00" d="M72.826 13.194h53.976v96.987H72.826z"/><path d="M76.253 61.688c0-19.706 9.253-37.184 23.475-48.494C89.276 4.97 76.082 0 61.688 0 27.588 0 0 27.588 0 61.688s27.588 61.687 61.688 61.687c14.394 0 27.588-4.97 38.04-13.194C85.506 99.044 76.253 81.395 76.253 61.69z" class="st2" fill="#eb001b"/><path d="M199.628 61.688c0 34.1-27.588 61.687-61.687 61.687-14.393 0-27.588-4.97-38.04-13.194 14.394-11.308 23.475-28.786 23.475-48.492 0-19.706-9.253-37.184-23.475-48.494C110.352 4.97 123.547 0 137.94 0c34.1 0 61.688 27.76 61.688 61.688z" class="st3" fill="#f79e1b"/></symbol><symbol id="tg" viewBox="0 0 512 512"><path d="M37.547 153.005c0-13.75 9.707-30.688 21.57-37.639L234.431 12.643c11.863-6.951 31.276-6.951 43.14 0l175.312 102.722c11.864 6.952 21.57 23.889 21.57 37.639v206c0 13.75-9.706 30.688-21.57 37.639L277.57 499.366c-11.863 6.95-31.276 6.95-43.14 0L59.118 396.642c-11.864-6.951-21.57-23.889-21.57-37.639v-206z" fill="#64A9DC"/><path fill="#fff" d="M369.525 130.358L92.447 237.228c-18.911 7.588-18.799 18.135-3.447 22.839l69.104 21.568 26.441 81.066c3.214 8.873 1.63 12.392 10.947 12.392 7.19 0 10.38-3.279 14.385-7.19 2.546-2.493 17.667-17.193 34.55-33.608l71.881 53.109c13.227 7.297 22.778 3.517 26.071-12.285l47.185-222.351c4.83-19.368-7.384-28.153-20.039-22.41zM168.95 276.68l155.761-98.27c7.776-4.716 14.906-2.181 9.052 3.015L200.39 301.761l-5.193 55.388-26.248-80.469z"/></symbol><symbol id="tw" viewBox="0 0 1024 1024"><path d="M75.094 306.009c0-27.5 19.413-61.375 43.14-75.277L468.861 25.286c23.727-13.902 62.553-13.902 86.28 0l350.625 205.445c23.729 13.902 43.141 47.777 43.141 75.277v412c0 27.5-19.412 61.375-43.141 75.277L555.141 998.731c-23.727 13.901-62.553 13.901-86.28 0L118.234 793.286c-23.727-13.902-43.14-47.777-43.14-75.277v-412z" fill="#00ACED"/><path d="M709.11 375.06s44.955-37.835 43.529-54.719c0 0-51.869 22.782-63.262 23.8 0 0-3.605-3.63-9.512-8.401a150.501 150.501 0 0 0-6.623-5.062 92.901 92.901 0 0 0-14.166-8.507 102.145 102.145 0 0 0-7.508-3.277c-16.537-7.246-34.654-9.021-52.438-7.075-2.541.277-5.074.632-7.596 1.057-29.496 4.617-54.721 22.518-70.594 46.924a84.261 84.261 0 0 0-3.949 6.854c-2.406 4.687-4.342 9.604-5.705 14.736a149.893 149.893 0 0 0-1.672 6.455 109.462 109.462 0 0 0-1.481 7.353c-1.627 9.968 0 42.311 0 42.311s-131.203 4.068-215.417-104.962c0 0-41.496 78.519 30.105 133.44 0 0-14.563 6.51-42.065-9.765 0 0-13.67 59.804 75.019 100.894H312.65s15.053 66.313 95.198 72.417c0 0-37.835 50.853-147.68 43.123 0 0 99.105 68.911 226.787 36.929a289.836 289.836 0 0 0 6.867-1.811c20.208-6.233 40.549-13.557 59.026-23.375a334.195 334.195 0 0 0 4.84-2.566 340.452 340.452 0 0 0 14.59-8.378s134.248-72.739 145.23-260.684c0 0 28.211-16.556 46.316-48.288.005-.001-50.851 11.797-54.714 10.577z" fill="#FFF"/></symbol><symbol id="visa" viewBox="0 0 53 17"><path d="M23 16.7h-4.34L21.37.08h4.31zM15 .08L10.88 11.5l-.48-2.44-1.47-7.51a1.86 1.86 0 0 0-2-1.51H.09L0 .37a16.46 16.46 0 0 1 4.53 1.89L8.31 16.7h4.49L19.68.08H15zM49 16.7h4L49.49.08H46a2 2 0 0 0-2 1.29l-6.4 15.37h4.49l.91-2.53h5.51zm-4.75-5.91l2.26-6.22 1.29 6.22h-3.55zm-6.31-6.71l.62-3.55a12.78 12.78 0 0 0-3.91-.71c-2.13 0-7.24.93-7.24 5.51 0 4.31 6 4.35 6 6.62s-5.41 1.86-7.15.42l-.62 3.73a12.06 12.06 0 0 0 4.89.93c2.93 0 7.42-1.51 7.42-5.69s-6-4.71-6-6.62 4.12-1.66 5.99-.64z" fill="#48588c"/><path d="M10.4 9L8.93 1.54a1.86 1.86 0 0 0-2-1.51H.09L0 .36a16.2 16.2 0 0 1 6.4 3.22 12.7 12.7 0 0 1 4 5.42z" fill="#e9a944"/></symbol><symbol id="vk" viewBox="0 0 1024 1024"><path d="M75.094 306.009c0-27.5 19.413-61.375 43.14-75.277L468.861 25.286c23.727-13.902 62.553-13.902 86.28 0l350.625 205.445c23.729 13.902 43.141 47.777 43.141 75.277v412c0 27.5-19.412 61.375-43.141 75.277L555.141 998.731c-23.727 13.901-62.553 13.901-86.28 0L118.234 793.286c-23.727-13.902-43.14-47.777-43.14-75.277v-412z" fill="#4C75A3"/><path d="M206.937 415.862c6.57 17.151 14.67 33.69 23.029 50.023 19.863 38.812 40.318 76.521 67.744 110.633 27.716 34.472 60.438 67.878 98.983 90.177 10.722 6.202 21.99 11.436 33.729 15.412 45.294 15.342 94.972 13.881 110.314 3.652s-2.922-77.439 10.959-85.476c13.879-8.037 38.719 9.498 56.982 25.569 18.264 16.072 32.145 29.952 42.373 40.911 6.404 6.862 10.914 15.054 19.264 19.947 13.813 8.096 32.217 7.198 47.623 7.241 8.59.025 17.18.053 25.77-.054 5.805-.072 11.613.115 17.414-.165 9.533-.462 22-4.227 21.283-16.151-.168-2.819-.793-6.192-1.914-8.794-2.408-5.593-5.801-11.399-9.447-16.271-18.994-25.386-31.596-38.354-41.092-48.582-9.498-10.228-48.582-47.12-51.139-54.427-2.559-7.305-3.379-10.547 3.879-20.41 7.262-9.862 23.15-34.747 35.57-52.646 7.789-11.227 14.865-22.963 21.855-34.695 8.242-13.833 15.994-28.001 22.602-42.692 2.955-6.568 5.635-12.554 3.807-19.914-1.227-4.932-4-9.264-9.166-10.481-2.818-.664-5.896-.731-8.779-.731h-38.904c-5.084 0-10.168-.074-15.254-.064-5.213.009-10.467-.032-15.666.414-7.395.633-11.928 6.336-15.646 12.086-4.551 7.035-8.693 14.355-13.107 21.48a714.63 714.63 0 0 0-8.873 14.714c-4.531 7.713-9.203 15.346-13.873 22.977-1.938 3.167-3.883 6.328-5.793 9.512-5.479 9.132-52.965 71.595-62.461 74.151-9.498 2.558-12.785 1.827-12.785-17.533V376.367s-.73-8.478-8.766-8.478H415.264s-18.082.075-11.688 16.331c6.393 16.255 25.296 21.187 25.296 48.309v106.296s-3.196 23.834-23.834 4.109c-16.263-15.544-29.663-33.922-41.503-52.977-12.31-19.81-22.228-40.391-31.063-61.953-2.526-6.167-5.027-12.344-7.623-18.482-2.709-6.408-5.393-12.826-7.99-19.279-3.018-7.496-6.244-17.293-14.377-20.743-4.089-1.735-8.611-1.65-12.971-1.648-16.165.004-32.328.049-48.493.019-4.743-.009-9.486-.013-14.229-.002-11.198.026-25.126-.304-27.783 13.686-1.531 8.058 1.513 16.66 4.06 24.207 1.155 3.429 2.579 6.727 3.871 10.1z" fill="#FFF"/></symbol><symbol id="yt" viewBox="0 0 1024 1024"><path d="M75.094 306.009c0-27.5 19.413-61.375 43.14-75.277L468.861 25.286c23.727-13.902 62.553-13.902 86.28 0l350.625 205.445c23.729 13.902 43.141 47.777 43.141 75.277v412c0 27.5-19.412 61.375-43.141 75.277L555.141 998.731c-23.727 13.901-62.553 13.901-86.28 0L118.234 793.286c-23.727-13.902-43.14-47.777-43.14-75.277v-412z" fill="#C12025"/><path d="M609.204 330.959a3302.883 3302.883 0 0 0-148.57-1.032c-140.201 2.669-199.034.516-206.096 108.368a2205.18 2205.18 0 0 0-.331 136.762c6.996 117.597 44.721 115.437 206.427 119.104 45.16.703 90.33.479 135.484-.672 113.748-3.132 166.652-.367 173.678-118.493a2204.708 2204.708 0 0 0-.334-136.699c-7.034-108.289-68.038-104.71-160.258-107.338zM459.443 579.29c-.273-48.897-.249-97.822.074-146.714 45.474 24.128 91.454 48.973 137.329 73.378-45.836 24.325-91.841 49.157-137.403 73.336z" fill="#FFF"/></symbol></svg>